<svg width="380" height="77" viewBox="0 0 380 77" fill="none" xmlns="http://www.w3.org/2000/svg">
<path fill-rule="evenodd" clip-rule="evenodd" d="M101.558 50.7396C101.58 50.6826 101.603 50.622 101.624 50.5613C101.631 50.5418 101.638 50.5248 101.646 50.5052L112.598 24.9706C112.601 24.9647 112.603 24.9597 112.606 24.9539C112.994 24.0929 113.48 23.2158 114.112 22.5061C114.806 21.729 115.77 21.4232 116.812 21.4232C117.867 21.4232 118.831 21.7348 119.574 22.4749C120.303 23.2004 120.621 24.1137 120.621 25.1156V53.883C120.621 54.2878 120.281 54.6181 119.863 54.6181H117.367C116.949 54.6181 116.609 54.2878 116.609 53.883V25.34C116.589 25.3753 116.571 25.4127 116.556 25.4476C116.551 25.4613 116.547 25.4734 116.541 25.4871L105.542 51.1148C105.539 51.121 105.537 51.1268 105.534 51.1327C105.136 52.0111 104.681 52.8825 104.126 53.6703C103.519 54.5329 102.634 54.9771 101.558 54.9771C100.482 54.9771 99.5973 54.5329 98.99 53.6703C98.4357 52.8824 97.9796 52.0111 97.5823 51.1327C97.5793 51.1268 97.5772 51.121 97.5742 51.1148L86.575 25.4871C86.569 25.4734 86.5652 25.4613 86.56 25.4476C86.5459 25.4127 86.5275 25.3762 86.5086 25.3421V53.883C86.5086 54.2878 86.1678 54.6181 85.7498 54.6181H83.2534C82.8359 54.6181 82.4951 54.2878 82.4951 53.883V25.1156C82.4951 24.1137 82.8136 23.2004 83.5427 22.4749C84.2847 21.7348 85.2496 21.4232 86.304 21.4232C87.3465 21.4232 88.3101 21.729 89.0037 22.5061C89.6368 23.2158 90.1233 24.0913 90.5112 24.9527C90.5146 24.9585 90.5164 24.9647 90.5194 24.9706L101.47 50.5052C101.478 50.5248 101.485 50.5418 101.492 50.5622C101.512 50.6228 101.535 50.6818 101.558 50.7396H101.558Z" fill="white"/>
<path fill-rule="evenodd" clip-rule="evenodd" d="M216.673 45.836H200.266C199.85 45.836 199.494 46.0662 199.333 46.4389L195.857 54.5243C195.737 54.8047 195.47 54.9772 195.157 54.9772H192.477C192.215 54.9772 191.989 54.8596 191.845 54.6481C191.7 54.4361 191.676 54.1902 191.778 53.9558L204.165 25.5469C204.356 25.111 204.568 24.6835 204.793 24.2629C205.025 23.8287 205.301 23.4182 205.628 23.0467C205.967 22.6631 206.372 22.3535 206.837 22.1283C207.346 21.8819 207.904 21.7822 208.47 21.7822C209.626 21.7822 210.611 22.2056 211.315 23.1023C211.907 23.8552 212.394 24.6747 212.774 25.5469L225.163 53.9557C225.265 54.1901 225.241 54.4361 225.096 54.648C224.951 54.8595 224.726 54.9771 224.464 54.9771H221.782C221.47 54.9771 221.203 54.8047 221.083 54.5242L217.607 46.4388C217.446 46.0661 217.09 45.8359 216.673 45.8359L216.673 45.836ZM202.715 42.2151H214.225C214.574 42.2151 214.874 42.0592 215.068 41.7779C215.261 41.4966 215.293 41.1684 215.159 40.8567L209.122 26.8588C209.118 26.848 209.114 26.8388 209.109 26.8293C208.936 26.4636 208.761 26.0851 208.587 25.7077C208.563 25.6558 208.506 25.5116 208.485 25.4884C208.433 25.5216 208.377 25.6558 208.352 25.7077C208.179 26.085 208.004 26.4636 207.832 26.8293C207.827 26.8388 207.823 26.848 207.819 26.8588L201.781 40.8567C201.647 41.1684 201.679 41.4966 201.872 41.7779C202.065 42.0592 202.365 42.2151 202.714 42.2151H202.715Z" fill="white"/>
<path fill-rule="evenodd" clip-rule="evenodd" d="M186.177 39.8578V50.7467C186.177 51.1809 186.115 51.6475 186.054 52.078C185.953 52.8011 185.615 53.4227 185.078 53.9097C185.071 53.9168 185.064 53.9226 185.057 53.9296C184.586 54.3834 183.968 54.6489 183.311 54.7823C182.764 54.8941 182.19 54.9772 181.628 54.9772H169.101C167.675 54.9772 166.261 54.7752 164.915 54.307C163.708 53.8865 162.565 53.308 161.558 52.5335C160.47 51.6966 159.56 50.6918 158.892 49.5097C158.259 48.3931 157.779 47.2114 157.457 45.976C157.139 44.7568 156.937 43.5119 156.857 42.2562C156.784 41.0852 156.741 39.9118 156.741 38.7383C156.741 37.3808 156.798 36.0245 156.905 34.6715C157.014 33.2924 157.274 31.9299 157.7 30.6098C158.124 29.2963 158.747 28.0671 159.557 26.9369C160.431 25.7186 161.579 24.7533 162.887 23.9924C164.214 23.22 165.651 22.6594 167.187 22.44C168.379 22.2692 169.607 22.1408 170.812 22.1408H184.679C185.096 22.1408 185.437 22.4712 185.437 22.8759V25.0267C185.437 25.4314 185.096 25.7617 184.679 25.7617H170.119C168.42 25.7617 166.751 26.0863 165.298 26.9701C164.028 27.7426 163.013 28.7523 162.339 30.0587C162.336 30.0637 162.334 30.0687 162.331 30.0737C162.001 30.6853 161.771 31.3382 161.613 32.0034C161.433 32.7634 161.291 33.5325 161.187 34.3059C161.086 35.0658 161.015 35.8283 160.984 36.5929C160.957 37.2473 160.939 37.9043 160.939 38.5592C160.939 39.7892 160.977 41.0399 161.119 42.2632C161.219 43.1296 161.341 44.0081 161.524 44.8615C161.635 45.3793 161.765 45.9398 161.954 46.436C162.053 46.6936 162.159 46.9778 162.29 47.2367C162.295 47.2455 162.3 47.2534 162.303 47.2633C162.568 47.8268 162.906 48.3346 163.306 48.7983C163.732 49.2953 164.228 49.7295 164.776 50.101C165.36 50.4969 166.007 50.7949 166.684 51.0122C167.447 51.2595 168.253 51.3563 169.055 51.3563H180.981C181.202 51.3563 181.424 51.3338 181.641 51.2985C181.763 51.279 181.858 51.2017 181.931 51.1211C182.011 51.0259 182.06 50.8809 182.089 50.7517C182.134 50.546 182.164 50.3312 182.164 50.1193V39.8578C182.164 39.4531 182.505 39.1227 182.923 39.1227H185.419C185.837 39.1227 186.177 39.4531 186.177 39.8578L186.177 39.8578Z" fill="white"/>
<path fill-rule="evenodd" clip-rule="evenodd" d="M131.311 36.3897H149.973C150.39 36.3897 150.731 36.7201 150.731 37.1252V39.2756C150.731 39.6803 150.39 40.0107 149.973 40.0107H131.311C130.754 40.0107 130.301 40.4507 130.301 40.9909V50.3167C130.301 50.8136 130.677 51.2271 131.186 51.289C131.481 51.3244 131.791 51.3563 132.084 51.3563H150.62C151.038 51.3563 151.378 51.6867 151.378 52.0918V54.2422C151.378 54.6469 151.038 54.9773 150.62 54.9773H131.437C130.839 54.9773 130.242 54.9449 129.647 54.8842C128.815 54.7991 128.11 54.3864 127.527 53.8209C126.948 53.2599 126.556 52.5855 126.434 51.7968C126.337 51.1673 126.287 50.5323 126.287 49.8962V27.0429C126.287 26.2588 126.365 25.3297 126.742 24.622C126.917 24.2934 127.132 23.8828 127.374 23.587C127.38 23.5791 127.385 23.572 127.391 23.5653C127.919 22.9537 128.577 22.4999 129.385 22.335C130.03 22.2037 130.687 22.1409 131.345 22.1409H150.435C150.852 22.1409 151.193 22.4713 151.193 22.876V25.0267C151.193 25.4315 150.852 25.7618 150.435 25.7618H131.714C131.472 25.7618 131.209 25.8067 130.974 25.8569C130.888 25.8744 130.653 25.9334 130.568 26.0115C130.432 26.1275 130.382 26.2501 130.363 26.3988C130.336 26.6008 130.301 26.8389 130.301 27.0429V35.41C130.301 35.9497 130.754 36.3898 131.311 36.3898L131.311 36.3897Z" fill="white"/>
<path fill-rule="evenodd" clip-rule="evenodd" d="M358.979 36.3897H377.641C378.058 36.3897 378.399 36.7201 378.399 37.1252V39.2756C378.399 39.6803 378.058 40.0107 377.641 40.0107H358.979C358.422 40.0107 357.968 40.4507 357.968 40.9909V50.3167C357.968 50.8136 358.345 51.2271 358.854 51.289C359.149 51.3244 359.458 51.3563 359.752 51.3563H378.288C378.706 51.3563 379.046 51.6867 379.046 52.0918V54.2422C379.046 54.6469 378.706 54.9773 378.288 54.9773H359.105C358.507 54.9773 357.91 54.9449 357.315 54.8842C356.483 54.7991 355.778 54.3864 355.195 53.8209C354.615 53.2599 354.224 52.5855 354.102 51.7968C354.005 51.1673 353.955 50.5323 353.955 49.8962V27.0429C353.955 26.2588 354.033 25.3297 354.41 24.622C354.585 24.2934 354.8 23.8828 355.042 23.587C355.048 23.5791 355.053 23.572 355.059 23.5653C355.587 22.9537 356.245 22.4999 357.053 22.335C357.698 22.2037 358.355 22.1409 359.013 22.1409H378.103C378.52 22.1409 378.861 22.4713 378.861 22.876V25.0267C378.861 25.4315 378.52 25.7618 378.103 25.7618H359.382C359.14 25.7618 358.877 25.8067 358.642 25.8569C358.556 25.8744 358.321 25.9334 358.236 26.0115C358.1 26.1275 358.05 26.2501 358.031 26.3988C358.004 26.6008 357.968 26.8389 357.968 27.0429V35.41C357.968 35.9497 358.422 36.3898 358.979 36.3898L358.979 36.3897Z" fill="white"/>
<path fill-rule="evenodd" clip-rule="evenodd" d="M322.193 54.2421V52.0918C322.193 51.6866 322.534 51.3562 322.952 51.3562H341.21C341.607 51.3562 341.997 51.2977 342.373 51.1721C342.722 51.0554 343.007 50.831 343.244 50.5613C343.581 50.1782 343.801 49.6655 343.952 49.1884C344.192 48.4238 344.242 47.5093 344.242 46.7143C344.242 46.2544 344.201 45.7968 344.116 45.3439C344.04 44.9392 343.886 44.5606 343.663 44.2108C343.404 43.806 343.021 43.464 342.629 43.1815C342.061 42.773 341.351 42.4789 340.686 42.2561L327.789 37.9541C326.961 37.6778 326.16 37.3308 325.398 36.9132C324.677 36.5193 324.012 36.0273 323.493 35.4165C323.487 35.4086 323.481 35.4028 323.473 35.3949C322.758 34.6058 322.24 33.6846 322.003 32.6445C321.796 31.732 321.685 30.8008 321.685 29.8658C321.685 28.9031 321.833 27.9307 322.05 26.9937C322.341 25.7322 323.121 24.7108 324.124 23.8848C324.746 23.3699 325.516 22.986 326.27 22.6876C327.348 22.2613 328.591 22.1408 329.747 22.1408H346.156C346.574 22.1408 346.914 22.4712 346.914 22.8759V25.0267C346.914 25.4314 346.574 25.7617 346.156 25.7617H329.468C328.925 25.7617 328.389 25.8598 327.873 26.0185C327.404 26.1615 326.985 26.3892 326.648 26.7378C326.262 27.138 326.053 27.6046 325.994 28.1493C325.929 28.7464 325.882 29.354 325.882 29.9548C325.882 30.4256 325.903 30.896 325.949 31.3655C325.985 31.7457 326.087 32.1085 326.264 32.4497C326.455 32.8199 326.752 33.1407 327.075 33.4091C327.522 33.7827 328.105 34.0474 328.658 34.2365L341.231 38.5376C342.158 38.8543 343.084 39.1941 343.978 39.5943C344.793 39.96 345.565 40.4262 346.217 41.0291C347.072 41.8211 347.706 42.7668 348.02 43.8767C348.272 44.7676 348.439 45.698 348.439 46.6242C348.439 46.8623 348.425 47.1083 348.415 47.3464C348.396 47.855 348.328 48.369 348.244 48.8705C348.138 49.5046 347.965 50.13 347.751 50.7379C347.512 51.4202 347.162 52.0506 346.714 52.6249C346.323 53.1248 345.864 53.5793 345.317 53.9196C344.849 54.2109 344.346 54.4477 343.814 54.6078C343.322 54.7557 342.815 54.8567 342.302 54.9057C341.848 54.9498 341.39 54.9771 340.933 54.9771H322.952C322.534 54.9771 322.193 54.6468 322.193 54.2421L322.193 54.2421Z" fill="white"/>
<path fill-rule="evenodd" clip-rule="evenodd" d="M304.991 44.0247L316.744 53.6816C316.991 53.8844 317.077 54.2002 316.965 54.4952C316.854 54.7902 316.578 54.9772 316.253 54.9772H312.602C312.414 54.9772 312.252 54.9195 312.109 54.801L297.829 42.9738C297.82 42.9659 297.813 42.9601 297.804 42.9522C297.542 42.7212 297.256 42.4739 297.031 42.225C296.763 41.9292 296.682 41.5406 296.682 41.1575V40.4412C296.682 39.9442 296.845 39.4796 297.228 39.1393C297.594 38.8119 298.058 38.6747 298.55 38.6747H308.581C309.173 38.6747 309.745 38.5551 310.244 38.2355C310.617 37.9982 311.025 37.6787 311.25 37.2977C311.52 36.8398 311.683 36.1712 311.789 35.6588C312.016 34.5581 312.028 33.2267 312.028 32.1065C312.028 31.6731 312.019 31.238 312.005 30.8046C311.99 30.2893 311.935 29.7737 311.853 29.263C311.769 28.7444 311.634 28.2345 311.45 27.7409C311.3 27.3386 311.076 26.978 310.749 26.69C310.514 26.481 310.247 26.3173 309.953 26.198C309.644 26.0734 309.325 25.9703 308.997 25.9017C308.711 25.8419 308.418 25.7979 308.125 25.7833C307.893 25.7717 307.657 25.7617 307.425 25.7617H294.204C293.974 25.7617 293.741 25.7854 293.512 25.8195C293.34 25.8461 293.173 25.9587 293.044 26.0697C292.914 26.1814 292.788 26.3235 292.742 26.4902C292.686 26.6996 292.652 26.9153 292.652 27.1322V54.2421C292.652 54.6468 292.311 54.9772 291.894 54.9772H289.397C288.979 54.9772 288.639 54.6468 288.639 54.2421V27.6703C288.639 26.9693 288.7 26.2675 288.838 25.5794C289.013 24.7093 289.562 23.9867 290.232 23.4045C290.822 22.8909 291.509 22.4949 292.291 22.3349C292.936 22.2036 293.593 22.1409 294.251 22.1409H307.887C308.424 22.1409 308.963 22.177 309.497 22.2352C310.125 22.3025 310.74 22.4467 311.334 22.6557C311.973 22.8788 312.568 23.1938 313.117 23.5799C313.722 24.0062 314.23 24.5414 314.658 25.1443C314.664 25.1531 314.669 25.1601 314.675 25.1689C315.379 26.2305 315.79 27.4065 315.965 28.6456C316.136 29.8523 316.226 31.0685 316.226 32.286C316.226 33.3826 316.142 34.4833 316.013 35.5724C315.86 36.8793 315.403 38.0947 314.678 39.2158C314.673 39.2237 314.669 39.2316 314.662 39.2395C314.269 39.81 313.807 40.3215 313.26 40.7458C312.762 41.1331 312.216 41.4584 311.626 41.7007C311.071 41.9279 310.489 42.0909 309.893 42.176C309.351 42.2533 308.804 42.2965 308.257 42.2965H305.644C305.212 42.2965 304.844 42.5467 304.695 42.9398C304.546 43.3328 304.662 43.7542 304.991 44.0247L304.991 44.0247Z" fill="white"/>
<path fill-rule="evenodd" clip-rule="evenodd" d="M263.031 36.3897H281.693C282.11 36.3897 282.451 36.7201 282.451 37.1252V39.2756C282.451 39.6803 282.11 40.0107 281.693 40.0107H263.031C262.474 40.0107 262.02 40.4507 262.02 40.9909V50.3167C262.02 50.8136 262.397 51.2271 262.906 51.289C263.201 51.3244 263.51 51.3563 263.803 51.3563H282.339C282.757 51.3563 283.098 51.6867 283.098 52.0918V54.2422C283.098 54.6469 282.757 54.9773 282.339 54.9773H263.157C262.559 54.9773 261.961 54.9449 261.367 54.8842C260.535 54.7991 259.83 54.3864 259.246 53.8209C258.667 53.2599 258.276 52.5855 258.153 51.7968C258.056 51.1673 258.007 50.5323 258.007 49.8962V27.0429C258.007 26.2588 258.084 25.3297 258.462 24.622C258.637 24.2934 258.852 23.8828 259.093 23.587C259.1 23.5791 259.105 23.572 259.111 23.5653C259.639 22.9537 260.297 22.4999 261.105 22.335C261.75 22.2037 262.406 22.1409 263.064 22.1409H282.155C282.572 22.1409 282.913 22.4713 282.913 22.876V25.0267C282.913 25.4315 282.572 25.7618 282.155 25.7618H263.433C263.192 25.7618 262.929 25.8067 262.693 25.8569C262.608 25.8744 262.373 25.9334 262.288 26.0115C262.151 26.1275 262.102 26.2501 262.082 26.3988C262.055 26.6008 262.02 26.8389 262.02 27.0429V35.41C262.02 35.9497 262.474 36.3898 263.031 36.3898L263.031 36.3897Z" fill="white"/>
<path fill-rule="evenodd" clip-rule="evenodd" d="M225.279 22.2535L235.785 48.7069C235.939 49.0929 236.302 49.3351 236.729 49.3351C237.156 49.3351 237.52 49.0929 237.672 48.7069L248.177 22.2535C248.293 21.9634 248.566 21.7819 248.885 21.7819H251.705C251.964 21.7819 252.187 21.8965 252.333 22.1043C252.478 22.3121 252.506 22.5552 252.41 22.7887L240.264 52.4238C240.26 52.4334 240.257 52.4421 240.253 52.4528C240.036 53.0333 239.618 53.5715 239.177 54.0273C238.528 54.6975 237.666 54.9772 236.728 54.9772C236.533 54.9772 236.32 54.9494 236.127 54.9261C235.765 54.8829 235.419 54.7653 235.094 54.6086C234.71 54.4212 234.368 54.1586 234.066 53.8644C233.662 53.4726 233.389 52.9598 233.205 52.4549C233.201 52.4433 233.197 52.4325 233.192 52.4208L221.047 22.7886C220.951 22.5551 220.98 22.312 221.124 22.1043C221.27 21.8965 221.494 21.7818 221.752 21.7818H224.571C224.891 21.7818 225.164 21.9634 225.279 22.2534L225.279 22.2535Z" fill="white"/>
<path fill-rule="evenodd" clip-rule="evenodd" d="M50.0155 9.09032C54.6766 11.7235 59.9194 14.9156 64.6928 18.4169C64.6976 18.4206 64.7019 18.4239 64.7061 18.4281C69.5473 22.7184 73.7296 27.1608 76.4018 31.5089C76.0601 31.1931 75.7129 30.8789 75.361 30.5673C75.358 30.5653 75.3563 30.5627 75.3533 30.5603C67.9591 23.23 56.5125 16.4535 43.5279 11.8021C43.5171 11.7983 43.5082 11.7938 43.4979 11.788C41.761 10.7965 34.2018 8.02535 38.7039 6.40314C38.7356 6.3915 38.7651 6.38859 38.7986 6.39357C42.5685 6.97158 46.3565 7.96594 49.9777 9.07459C49.9914 9.07789 50.003 9.08332 50.0155 9.09037L50.0155 9.09032ZM18.8288 52.1985C17.8034 50.4574 16.9333 48.6811 16.1969 46.8237C16.196 46.8216 16.1951 46.8199 16.1943 46.8178C15.9491 46.1264 15.6816 45.2405 15.43 44.4281C15.4064 44.3529 15.433 44.2748 15.4986 44.2279C15.5637 44.1809 15.6478 44.1793 15.715 44.2229C16.9581 45.0373 18.2184 45.8301 19.4906 46.6026C19.521 46.6213 19.5429 46.6441 19.5591 46.6762C19.8557 47.2563 20.2908 48.111 20.3316 48.1804C22.6874 52.2073 26.5915 56.0252 31.046 59.2497C31.1253 59.3066 31.1455 59.413 31.0928 59.494C31.04 59.575 30.9329 59.6033 30.8459 59.5584C27.2966 57.738 23.8837 55.7102 20.7276 53.5307L18.8823 52.2567C18.8592 52.2406 18.8425 52.2226 18.8287 52.1986L18.8288 52.1985ZM35.4818 46.4642C32.4015 44.9745 29.3367 43.4549 26.2907 41.9017C23.8937 40.68 21.5057 39.4359 19.1362 38.1607C19.11 38.1466 19.0899 38.1287 19.0723 38.1042C17.1841 35.4281 14.9247 31.3502 15.2539 28.6688C15.2612 28.6114 15.292 28.5644 15.3426 28.5345C15.3932 28.5038 15.4498 28.4984 15.5059 28.5184L15.9984 28.6954C21.48 34.2854 28.0961 40.3539 35.4818 46.4642V46.4642ZM60.4004 39.0055C54.7975 35.8321 48.4381 32.6845 41.5604 29.7549C38.4382 28.4157 35.279 27.155 32.0903 25.9861C31.7114 25.8478 31.332 25.7098 30.9518 25.5731C30.5643 25.4326 28.2509 24.0456 27.8389 23.7514C25.5122 22.0909 20.5738 18.332 22.2905 15.8189C22.3308 15.7595 22.3981 15.7295 22.4709 15.7387L22.9502 15.7969C26.6023 16.2444 30.2436 17.0069 33.8044 17.9705C33.8229 17.9755 33.8387 17.9825 33.855 17.9925C40.6821 22.235 48.9079 27.1001 56.9814 32.5136C56.9836 32.5152 56.9853 32.5161 56.987 32.5177C63.9341 37.5539 70.0432 42.7214 73.4912 46.8373C73.5512 46.9092 73.5473 47.0122 73.4813 47.0795C73.4153 47.1473 73.309 47.1556 73.2327 47.1003C69.7225 44.5502 66.0001 42.2208 62.2439 40.0538C61.6318 39.7006 61.0175 39.3511 60.4002 39.0054L60.4004 39.0055Z" fill="#FF6600"/>
<path fill-rule="evenodd" clip-rule="evenodd" d="M21.3672 54.9805C29.7507 60.5635 40.9162 67.5914 51.4965 65.8108C54.1319 65.3666 56.744 64.6839 58.7792 63.8778C54.7915 65.6629 50.3516 66.6602 45.6707 66.6602C40.8625 66.6602 36.126 65.5997 31.8087 63.5296C27.565 61.5442 24.1359 58.6725 21.1186 55.2514C21.0565 55.1812 21.0577 55.079 21.1212 55.01C21.1846 54.941 21.2884 54.9285 21.3673 54.9805H21.3672ZM76.5103 30.8861C74.6259 22.5705 70.6738 17.8713 63.1275 13.8382C56.3064 10.1923 47.5276 7.25619 42.6128 6.24733C42.5189 6.22823 42.4555 6.14386 42.4649 6.0508C42.4739 5.95852 42.5515 5.88791 42.6467 5.885C45.2405 5.80852 47.6902 5.91989 50.0105 6.23031C48.5637 5.99346 47.0944 5.86921 45.6112 5.8738L45.6884 5.87296C61.1107 5.70678 73.9363 16.6688 76.5103 30.8861L76.5103 30.8861ZM76.7756 39.8282C76.2604 44.0446 74.8527 47.9955 72.7425 51.5L72.7181 51.542L72.7154 51.5462L72.6203 51.7082C72.6194 51.7094 72.619 51.7103 72.6185 51.7115C72.1942 52.3942 71.7651 53.042 71.3026 53.6961C71.288 53.7165 71.2704 53.733 71.2503 53.7455C69.3484 56.348 67.0346 58.6471 64.4005 60.5539C66.3152 58.9662 69.4007 55.6312 70.8713 53.6416C60.9902 47.717 46.7539 40.6443 33.5888 34.893C29.6329 31.0447 26.0909 27.3166 23.0822 23.8661C39.7802 28.8192 61.1376 39.0574 73.8749 48.6225C75.0224 46.1916 76.3276 42.5537 76.7756 39.8282H76.7756ZM76.8438 33.1536C77.0041 35.2603 76.99 37.3745 76.8009 39.4792C76.7945 39.5511 76.7487 39.6093 76.68 39.635C76.6106 39.6608 76.5373 39.6462 76.4842 39.5968C63.5484 27.6146 41.1177 17.2924 23.442 15.0195C23.3687 15.0099 23.3113 14.9633 23.2881 14.8952C23.2654 14.8267 23.2834 14.7564 23.3366 14.7061C24.8527 13.2784 26.4799 11.9694 28.2073 10.7897C28.2459 10.7635 28.2875 10.7528 28.3342 10.7573C45.1873 12.4382 64.7714 21.4007 76.7894 33.0372C76.8224 33.0696 76.8404 33.1078 76.8438 33.1535L76.8438 33.1536ZM14.5162 36.5788C21.2091 40.3376 29.6346 44.6213 38.2277 48.7097C45.1847 54.3289 52.0105 59.3339 58.3 63.5042C44.3801 59.088 26.8659 50.7267 14.9958 42.7373C14.9538 42.709 14.9281 42.6704 14.9187 42.621C14.5393 40.6817 14.3104 38.7188 14.2346 36.7454C14.2316 36.6764 14.265 36.6161 14.325 36.5808C14.3854 36.5455 14.4553 36.5446 14.5162 36.5787V36.5788Z" fill="white"/>
<path fill-rule="evenodd" clip-rule="evenodd" d="M24.7845 9.91636C12.9131 2.39113 3.95864 -1.07233 1.52862 1.59038C-2.5821 6.09596 13.5411 26.4303 37.5406 47.0077C61.5402 67.5855 84.3285 80.6149 88.4396 76.1093C90.8692 73.4462 86.2295 65.2536 77.0749 54.7507C81.901 60.9574 84.0824 65.5964 82.5247 67.3038C79.2447 70.8989 60.6341 60.1355 40.9565 43.2642C21.279 26.3924 7.98619 9.80079 11.2666 6.20565C12.8243 4.49867 17.8403 6.03112 24.7845 9.9163L24.7845 9.91636Z" fill="white"/>
<path fill-rule="evenodd" clip-rule="evenodd" d="M14.4068 37.3525C14.3927 36.9765 14.3828 36.6 14.3828 36.221L14.3837 36.1462C14.3845 36.548 14.3966 36.9474 14.4132 37.345L14.4068 37.3525Z" fill="#333333"/>
</svg>
